<svg xmlns="http://www.w3.org/2000/svg" width="520" height="320">
  <g transform="translate(-218, -196)">
  <path d="M528 247c4.68 5.143 7.635 11.005 8 18-.487 7.623-3.01 14.466-8.812 19.605C522.622 288 522.622 288 520 288l1 24 10.027-.035 9.571-.02q3.337-.008 6.673-.02c3.19-.013 6.38-.018 9.569-.023l3.033-.015h2.79l2.47-.007C567 312 567 312 568 313c3.421.446 6.84.823 10.273 1.162 1.918.213 3.824.519 5.727.838l1 2c2.091.446 4.183.889 6.277 1.32C609.626 322.9 625.684 336.16 637 351q1.673 2.928 3.313 5.875c1.876 3.075 2.92 4.776 6.218 6.277q2.803.665 5.633 1.2c8.293 1.896 15.728 8.014 20.836 14.648 9.643 15.529 11.883 31.494 8.035 49.25-3.281 11.887-10.105 22.42-20.836 28.809-2.556 1.094-4.96 1.429-7.699 1.878-3.934.949-5.213 1.676-7.664 4.973-1.383 2.417-2.629 4.897-3.883 7.383C631.625 489.699 612.88 501.317 594 508c-16.278 5.11-16.278 5.11-24.302 5.147l-3.18.022-3.458.008-3.668.02c-4.01.02-8.02.031-12.029.041l-4.164.013q-9.798.029-19.596.041-11.244.015-22.487.077-8.73.044-17.459.048c-3.462.002-6.924.011-10.387.036-15.048.096-28.742-.468-43.27-4.453-1.995-.36-3.994-.704-6-1v-2l-2.437-.75c-20.2-7.087-33.559-22.145-43.801-40.465C377 463 377 463 377 460l-3.5-.312c-9.318-1.214-16.493-5.365-22.875-12.25-2.443-1.684-2.443-1.684-4.73-1.118a104 104 0 0 0-5.047 1.672c-3.125 1.106-6.254 1.913-9.473 2.695l-3.102.762L326 452l.945 3.867 1.18 5.008.629 2.55.566 2.442.54 2.254L330 470l-2 2v-2l-1.984-.262c-11.34-1.746-23.242-5.9-31.47-14.218-4.524-3.805-10.27-4.263-15.921-5.332-16.703-3.487-35.597-10.472-45.691-25.204C228 416.732 228 416.732 228 413l-2-1c-.562-11.24-.326-19.785 5-30l1-3c14.939-15.758 34.985-23.067 56-26l2-1c2.804-.13 5.57-.19 8.375-.187h2.538c9.427.083 18.735 1.067 28.087 2.187l2.226.246c4.96.567 9.192 1.841 13.774 3.754l2.96 1.168c9.007 3.613 9.007 3.613 12.165 6.332 3.446 1.798 4.243 1.467 7.875.438a182 182 0 0 0 5-1.938l3.25-1.062c3.528-2.486 4.854-5.28 6.953-8.997 13.795-22.581 36.84-33.511 61.688-39.656 17.858-3.752 36.973-2.406 55.109-2.285 2.969-12.915 2.969-12.915.047-25.031-2.594-1.911-5.218-3.438-8.047-4.969-5.168-5.439-6.424-12.227-6.25-19.477.641-6.475 3.297-12.194 8.25-16.523 11.487-7.856 23.04-7.876 34 1M404.246 352.375c-16.418 19.187-21.666 44.488-19.992 69.176 1.753 19.561 8.115 36.915 22.746 50.449l1.477 1.422c4.958 4.559 10.53 7.568 16.523 10.578l2.215 1.16c12.65 6.196 27.384 6.957 41.223 7.465l3.603.156c6.153.233 11.872.075 17.959-.781l2 1a132 132 0 0 0 6.12.161l3.91.03 4.267.012 2.184.009q5.757.022 11.514.028 4.701.007 9.402.041c47.703.488 47.703.488 88.513-21.96 12.68-14.08 20.305-32.32 21.09-51.321l.121-2.645c.423-18.561-3.075-37.535-13.121-53.355l-1.574-2.492C615.273 347.444 601.738 335.87 585 332q-4.076-1.133-8.148-2.281c-6.625-1.67-12.917-1.878-19.712-1.896l-3.285-.02q-5.373-.028-10.746-.041l-3.726-.013q-8.77-.028-17.54-.041c-7.362-.01-14.723-.045-22.084-.088-5.179-.027-10.357-.035-15.536-.038q-3.696-.008-7.39-.035c-27.678-.197-52.573 3.822-72.587 24.828M371 380l1 3Zm280 1 .367 1.957c1.162 6.533 2.04 13.074 2.758 19.668l.265 2.347c.977 9.328.63 18.344-.39 27.653-.095.909-.19 1.818-.29 2.754q-.347 3.31-.71 6.621c6.801-3.219 10.743-9.964 13.309-16.898 2.73-12.25 1.506-25.305-5.184-35.977-2.345-3.296-4.678-5.923-8.125-8.125zm-285 1a219 219 0 0 0-3.312 3.5l-1.864 1.969c-4.559 6.326-5.326 12.639-5.199 20.281l.029 2.661c.234 10.125 1.772 19.543 8.346 27.589 2.121 1.954 2.121 1.954 4 3 1.203-3.608.881-6.087.563-9.875-.934-12.515-.374-24.47 1.167-36.904.454-3.737.86-7.48 1.27-11.221zm-74.687 13.063c-2.704 2.797-2.704 2.797-2.25 6.625.66 3.36.66 3.36 2.937 5.312 4.056.453 4.056.453 8 0 2.26-2.017 2.26-2.017 3-5-.218-3.236-.218-3.236-1-6h-5l-1-3c-2.3-.203-2.3-.203-4.687 2.063M318 396c-.748 4.431-.514 7.23 2 11 2.32 1.015 2.32 1.015 5 1 2.283-1.142 4.19-2.19 6-4 .368-3.897.58-6.163-1.687-9.437-4.16-2.811-8.03-2.455-11.313 1.437m-56-1c-1.525 3.05-1.236 5.642-1 9 .917 2.083.917 2.083 3 3 4.663.535 4.663.535 8.875-1.187 1.48-2.383 1.99-3.997 2.125-6.813-.993-2.821-.993-2.821-3-5-3.884-1.533-6.363-.92-10 1" fill="#030303"/><path d="M479.629 352.477c8.477.613 16.907.496 25.398.296l4.129-.09a3200 3200 0 0 0 17.076-.427c25.576-.704 50.867-1.238 71.21 16.924 11.477 11.847 15.97 25.96 15.926 42.163-.273 14.086-5.494 26.267-15.09 36.524-10.106 9.464-23.035 13.823-36.59 15.253l-2.353.253c-8.758.868-17.49.917-26.284.893l-5.263.005q-5.465.005-10.929-.01c-4.625-.012-9.25-.005-13.876.007q-5.418.009-10.834 0-2.556-.003-5.112.005c-20.8.045-38.813-2.655-57.037-13.273v-2l-1.773-.75c-2.555-1.434-3.98-3.007-5.852-5.25-1.748-2.077-3.455-4.08-5.375-6a101 101 0 0 1-1.937-6.625L414 427l-2-1c-3.788-15.082-2.926-30.833 4.188-44.812 8.496-13.698 21.16-22.849 36.784-26.783 4.902-.979 9.875-1.143 14.86-1.264 4.341-.193 7.232-1.061 11.797-.664m70.121 42.898c-2.198 2.751-3.946 5.141-4.75 8.625.3 3.228.3 3.228 1 6 3.186 0 4.293-.525 7.063-1.937 6.883-3.14 13.747-3.943 21.054-1.813 2.034.81 3.821 1.808 5.696 2.938L583 411l3-1c-.305-6.861-1.348-11.472-6.492-16.441-8.748-7.639-22.043-6.635-29.758 1.816M445 399c-2.454 3.68-2.817 6.726-2 11 2.28 3.06 3.93 4.598 7.5 5.938 3.94.098 6.391-.944 9.313-3.563 1.723-3.447 1.838-6.647 1.187-10.375-1.39-3.05-1.39-3.05-4-5-5.067-1.474-7.855-1.316-12 2m30.25-.062c-2.49 3.39-3.021 5.029-2.727 9.125.874 3.552 2.493 4.948 5.477 6.937 3.882.869 6.994.578 10.5-1.437 2.232-3.814 2.411-7.259 1.5-11.563-2.189-3.109-2.189-3.109-5-5h-2l-1 1-1.75-.75c-2.499-.53-2.499-.53-5 1.688m27 .25c-1.986 2.88-2.13 5.358-2.25 8.812 1.364 2.923 2.728 4.728 5 7 3.377 1.22 4.777 1.083 8.188-.187 2.93-1.89 3.896-2.514 4.812-5.813.583-3.458.583-3.458 0-7-2.134-2.726-3.86-4.466-7-5.937-3.45-.108-5.944 1.22-8.75 3.125m60.188 33c-9.579 8.571-20.291 11.088-33.067 10.703A148 148 0 0 1 521 442l-2 3c.666 3.128.666 3.128 3.117 4.168 11.77 4.35 21.271 3.57 32.883-1.168 6.335-3.2 11.768-7.549 15-14 .06-2.905.06-2.905-1-5-3.684 0-4.012.69-6.562 3.188" fill="#020202"/><path d="M554 219c3.457 2.88 6.752 5.888 10 9l1.93 1.773c5.217 4.94 9.847 10.78 13.07 17.227l3.91-.488c23.408-2.587 44.954 1.777 63.703 16.547C655.934 270.994 662.841 280.92 668 292v2l2.316.043c17.914.798 34.322 7.898 46.684 20.957 5.298 6.382 12 15.42 12 24l2 1c.748 20.102.505 36.299-12 53l-2.09 2.8L715 398h-2v2a116 116 0 0 1-6.562 5l-1.846 1.367c-3.094 2.213-5.795 3.853-9.494 4.82L692 412l-1 2q-.757-3.624-1.5-7.25l-.434-2.066c-.679-3.33-1.066-6.267-1.066-9.684l2.484-1.137 3.266-1.55c1.067-.5 2.135-.998 3.234-1.512 3.214-1.92 4.837-3.796 7.016-6.801l2.438-2.187c7.783-8.544 9.88-18.883 9.5-30.125-.983-11.197-4.7-21.775-12.938-29.688-13.801-10.562-27.933-12.454-45-12-1.562-2.952-2.688-5.9-3.75-9.062-5.91-16.22-15.665-27.208-31.25-34.938-14.687-5.858-28.889-6.084-44-2q-2.202.557-4.406 1.105L571 266l-.794-1.529a3010 3010 0 0 0-3.581-6.846l-1.25-2.406c-.4-.76-.8-1.521-1.21-2.305l-1.112-2.126c-1.048-1.95-1.048-1.95-3.053-3.788a403 403 0 0 1-2.812-3.312c-13.773-16.058-31.76-25.504-52.688-28.438a126 126 0 0 0-4.5-.25l-3.316-.156c-24.13-.604-45.848 7.725-63.684 24.156l-1 2h-2l-.762 1.629c-1.51 2.893-3.279 5.568-5.05 8.309-4.044 6.388-6.747 12.893-9.188 20.062l-3.75-.875q-2.624-.57-5.25-1.125l-2.812-.613c-14.867-2.906-29.71-.45-42.51 7.774-12.56 8.617-21.828 21.42-25.225 36.402-1.466 7.885-1.563 15.422-1.453 23.437-2.292-.06-4.584-.149-6.875-.25l-3.867-.14c-3.258-.61-3.258-.61-4.711-2.2-3.552-15.654 3.588-34.206 11.453-47.41 2.464-3.54 5.111-6.8 8-10 .565-.634 1.13-1.268 1.71-1.922 11.293-11.982 28.935-21.505 45.59-22.17 2.63-.042 5.257-.044 7.887-.033l2.733-.012 2.623.004 2.376.004C403 252 403 252 406 253l.758-2.617C412.168 235.65 426.065 223.127 439 215l2.281-1.543c10.766-6.98 22.527-10.505 35.031-12.832l2.71-.508c26.08-4.45 54.062 2.846 74.978 18.883" fill="#060606"/>
  </g>
</svg>